<svg width="150" height="150" viewBox="0 0 150 150" fill="none" xmlns="http://www.w3.org/2000/svg">
<circle cx="75" cy="75" r="71" fill="#202020" stroke="white" stroke-width="8"/>
<path d="M50 110V111H51H99.5294H100.529V110V102.059V101.059H99.5294H75.7059C73.0884 101.059 70.6 101.091 68.241 101.157H68.2281H68.2147H68.2013H68.1879H68.1744H68.161H68.1476H68.1342H68.1208H68.1073H68.0939H68.0805H68.067H68.0536H68.0402H68.0267H68.0133H67.9998H67.9864H67.9729H67.9595H67.946H67.9326H67.9191H67.9056H67.8922H67.8787H67.8652H67.8518H67.8383H67.8248H67.8114H67.7979H67.7844H67.7709H67.7574H67.7439H67.7304H67.717H67.7035H67.69H67.6765H67.663H67.6495H67.636H67.6224H67.6089H67.5954H67.5819H67.5684H67.5549H67.5413H67.5278H67.5143H67.5008H67.4872H67.4737H67.4602H67.4466H67.4331H67.4196H67.406H67.3925H67.3789H67.3654H67.3518H67.3383H67.3247H67.3111H67.2976H67.284H67.2704H67.2569H67.2433H67.2297H67.2162H67.2026H67.189H67.1754H67.1618H67.1482H67.1347H67.1211H67.1075H67.0939H67.0803H67.0667H67.0531H67.0395H67.0259H67.0123H66.9986H66.985H66.9714H66.9578H66.9442H66.9306H66.9169H66.9033H66.8897H66.876H66.8624H66.8488H66.8351H66.8215H66.8079H66.7942H66.7806H66.7669H66.7533H66.7396H66.7259H66.7123H66.6986H66.685H66.6713H66.6576H66.644H66.6303H66.6166H66.6029H66.5893H66.5756H66.5619H66.5482H66.5345H66.5208H66.5071H66.4934H66.4798H66.4661H66.4524H66.4386H66.4249H66.4112H66.3975H66.3838H66.3701H66.3564H66.3427H66.3289H66.3152H66.3015H66.2878H66.274H66.2603H66.2466H66.2328H66.2191H66.2053H66.1916H66.1779H66.1641H66.1504H66.1366H66.1229H66.1091H66.0953H66.0816H66.0678H66.054H66.0403H66.0265H66.0127H65.999H65.9852H65.9714H65.9576H65.9438H65.93H65.9163H65.9025H65.8887H65.8749H65.8611H65.8473H65.8335H65.8197H65.8059H65.7921H65.7782H65.7644H65.7506H65.7368H65.723H65.7092H65.6953H65.6815H65.6677H65.6538H65.64H65.6262H65.6123H65.5985H65.5847H65.5708H65.557H65.5431H65.5293H65.5154H65.5016H65.4877H65.4738H65.46H65.4461H65.4322H65.4184H65.4045H65.3906H65.3767H65.3629H65.349H65.3351H65.3212H65.3073H65.2934H65.2796H65.2657H65.2518H65.2379H65.224H65.2101H65.1962H65.1822H65.1683H65.1544H65.1405H65.1266H65.1127H65.0988H65.0848H65.0709H65.057H65.043H65.0291H65.0152H65.0012H64.9873H64.9734H64.9594H64.9455H64.9315H64.9176H64.9036H64.8897H64.8757H64.8618H64.8478H64.8338H64.8199H64.8059H64.7919H64.778H64.764H64.75H64.736H64.722H64.7081H64.6941H64.6801H64.6661H64.6521H64.6381H64.6241H64.6101H64.5961H64.5821H64.5681H64.5541H64.5401H64.5261H64.512H64.498H64.484H64.47H64.456H64.4419H64.4279H64.4139H64.3998H64.3858H64.3718H64.3577H64.3437H64.3296H64.3156H64.3015H64.2875H64.2734H64.2594H64.2453H64.2313H64.2172H64.2031H64.1891H64.175H64.1609H64.1469H64.1328H64.1187H64.1046H64.0905H64.0765H64.0624H64.0483H64.0342H64.0201H64.006H63.9919H63.9778H63.9637H63.9496H63.9355H63.9214H63.9073H63.8932H63.879H63.8649H63.8508H63.8367H63.8225H63.8084H63.7943H63.7802H63.766H63.7519H63.7378H63.7236H63.7095H63.6953H63.6812H63.667H63.6529H63.6387H63.6246H63.6104H63.5962H63.5821H63.5679H63.5537H63.5396H63.5254H63.5112H63.497H63.4829H63.4687H63.4545H63.4403H63.4261H63.4119H63.3977H63.3836H63.3694H63.3552H63.341H63.3268H63.3125H63.2983H63.2841H63.2699H63.2557H63.2415H63.2273H63.213H63.1988H63.1846H63.173L84.1351 74.8387L84.3529 74.5653V74.2157V71.5686V71.2032L84.1173 70.9238L65.4737 48.8243C66.1798 48.8369 66.9765 48.8431 67.8627 48.8431H67.875H67.8872H67.8995H67.9117H67.9239H67.9361H67.9483H67.9605H67.9727H67.9849H67.9971H68.0093H68.0214H68.0336H68.0457H68.0579H68.07H68.0821H68.0942H68.1063H68.1184H68.1305H68.1426H68.1547H68.1668H68.1788H68.1909H68.2029H68.215H68.227H68.2391H68.2511H68.2631H68.2751H68.2871H68.2991H68.3111H68.323H68.335H68.347H68.3589H68.3709H68.3828H68.3947H68.4066H68.4186H68.4305H68.4424H68.4543H68.4661H68.478H68.4899H68.5017H68.5136H68.5255H68.5373H68.5491H68.5609H68.5728H68.5846H68.5964H68.6082H68.62H68.6317H68.6435H68.6553H68.667H68.6788H68.6905H68.7023H68.714H68.7257H68.7374H68.7491H68.7608H68.7725H68.7842H68.7959H68.8075H68.8192H68.8309H68.8425H68.8541H68.8658H68.8774H68.889H68.9006H68.9122H68.9238H68.9354H68.947H68.9585H68.9701H68.9817H68.9932H69.0047H69.0163H69.0278H69.0393H69.0508H69.0623H69.0738H69.0853H69.0968H69.1083H69.1197H69.1312H69.1427H69.1541H69.1655H69.177H69.1884H69.1998H69.2112H69.2226H69.234H69.2454H69.2567H69.2681H69.2795H69.2908H69.3022H69.3135H69.3248H69.3362H69.3475H69.3588H69.3701H69.3814H69.3927H69.404H69.4152H69.4265H69.4377H69.449H69.4602H69.4715H69.4827H69.4939H69.5051H69.5163H69.5275H69.5387H69.5499H69.5611H69.5722H69.5834H69.5946H69.6057H69.6168H69.628H69.6391H69.6502H69.6613H69.6724H69.6835H69.6946H69.7057H69.7167H69.7278H69.7388H69.7499H69.7609H69.772H69.783H69.794H69.805H69.816H69.827H69.838H69.849H69.8599H69.8709H69.8819H69.8928H69.9038H69.9147H69.9256H69.9365H69.9475H69.9584H69.9693H69.9801H69.991H70.0019H70.0128H70.0236H70.0345H70.0453H70.0562H70.067H70.0778H70.0886H70.0994H70.1102H70.121H70.1318H70.1426H70.1534H70.1641H70.1749H70.1856H70.1964H70.2071H70.2178H70.2285H70.2393H70.25H70.2607H70.2713H70.282H70.2927H70.3034H70.314H70.3247H70.3353H70.346H70.3566H70.3672H70.3778H70.3884H70.399H70.4096H70.4202H70.4308H70.4413H70.4519H70.4624H70.473H70.4835H70.4941H70.5046H70.5151H70.5256H70.5361H70.5466H70.5571H70.5676H70.578H70.5885H70.599H70.6094H70.6198H70.6303H70.6407H70.6511H70.6615H70.6719H70.6823H70.6927H70.7031H70.7135H70.7238H70.7342H70.7446H70.7549H70.7652H70.7756H70.7859H70.7962H70.8065H70.8168H70.8271H70.8374H70.8477H70.8579H70.8682H70.8784H70.8887H70.8989H70.9092H70.9194H70.9296H70.9398H70.95H70.9602H70.9704H70.9806H70.9907H71.0009H71.0111H71.0212H71.0314H71.0415H71.0516H71.0617H71.0718H71.082H71.0921H71.1021H71.1122H71.1223H71.1324H71.1424H71.1525H71.1625H71.1726H71.1826H71.1926H71.2026H71.2126H71.2226H71.2326H71.2426H71.2526H71.2626H71.2725H71.2825H71.2924H71.3024H71.3123H71.3222H71.3321H71.342H71.3519H71.3618H71.3717H71.3816H71.3915H71.4013H71.4112H71.4211H71.4309H71.4407H71.4506H71.4604H71.4702H71.48H71.4898H71.4996H71.5094H71.5191H71.5289H71.5387H71.5484H71.5582H71.5679H71.5776H71.5874H71.5971H71.6068H71.6165H71.6262H71.6359H71.6455H71.6552H71.6649H71.6745H71.6842H71.6938H71.7035H71.7131H71.7227H71.7323H71.7419H71.7515H71.7611H71.7707H71.7803H71.7898H71.7994H71.8089H71.8185H71.828H71.8375H71.8471H71.8566H71.8661H71.8756H71.8851H71.8946H71.904H71.9135H71.923H71.9324H71.9419H71.9513H71.9607H71.9701H71.9796H71.989H71.9984H72.0078H72.0172H72.0265H72.0359H72.0453H72.0546H72.064H72.0733H72.0827H72.092H72.1013H72.1106H72.1199H72.1292H72.1385H72.1478H72.1571H72.1663H72.1756H72.1848H72.1941H72.2033H72.2125H72.2218H72.231H72.2402H72.2494H72.2586H72.2678H72.2769H72.2861H72.2953H72.3044H72.3136H72.3227H72.3318H72.341H72.3501H72.3592H72.3683H72.3774H72.3865H72.3956H72.4046H72.4137H72.4228H72.4318H72.4408H72.4499H72.4589H72.4679H72.4769H72.4859H72.4949H72.5039H72.5129H72.5219H72.5309H72.5398H72.5488H72.5577H72.5667H72.5756H72.5845H72.5934H72.6023H72.6112H72.6201H72.629H72.6379H72.6468H72.6556H72.6645H72.6733H72.6822H72.691H72.6998H72.7086H72.7174H72.7263H72.735H72.7438H72.7526H72.7614H72.7702H72.7789H72.7877H72.7964H72.8051H72.8139H72.8226H72.8313H72.84H72.8487H72.8574H72.8661H72.8748H72.8834H72.8921H72.9007H72.9094H72.918H72.9267H72.9353H72.9439H72.9525H72.9611H72.9697H72.9783H72.9869H72.9954H73.004H73.0126H73.0211H73.0296H73.0382H73.0467H73.0552H73.0637H73.0722H73.0807H73.0892H73.0977H73.1062H73.1146H73.1231H73.1316H73.14H73.1484H73.1569H98.3529H99.3529V47.8431V40V39H98.3529H51.9804H50.9804V40V47.3529V47.7162L51.2136 47.9948L72.8452 73.8379L50.2191 102.12L50 102.394V102.745V110Z" fill="white" stroke="white" stroke-width="2"/>
</svg>
